<svg xmlns="http://www.w3.org/2000/svg" style="display: none;">
  <symbol id="cat-icon" viewBox="0 0 1080 1080">
    <g transform="translate(0.000000,1080.000000) scale(0.100000,-0.100000)"
       fill="currentColor" stroke="none">
      <path d="M5265 9879 c-446 -36 -846 -167 -1185 -386 -309 -201 -553 -477 -665
      -756 -115 -284 -80 -608 83 -772 157 -158 461 -169 627 -24 51 45 125 161 146
      231 40 129 16 308 -62 464 -39 77 -40 83 -29 125 56 205 289 440 571 573 121
      57 223 90 362 117 97 19 135 21 292 16 207 -5 325 -24 475 -73 161 -53 277
      -122 386 -229 238 -234 356 -540 371 -965 12 -353 -49 -633 -204 -930 -201
      -385 -400 -609 -993 -1120 -249 -214 -569 -524 -681 -659 -87 -104 -146 -208
      -180 -321 -31 -98 -34 -299 -6 -400 35 -130 105 -239 207 -323 66 -55 211
      -123 325 -154 94 -25 113 -27 320 -27 245 -1 365 16 553 75 115 36 252 98 252
      113 0 6 -28 91 -61 189 -51 147 -65 177 -78 171 -9 -4 -54 -18 -101 -31 -116
      -34 -344 -43 -440 -19 -162 41 -255 136 -279 282 -18 116 20 238 112 360 106
      139 426 418 937 814 582 451 810 674 1041 1018 140 208 218 385 265 602 27
      120 27 474 0 605 -48 243 -137 467 -257 650 -79 120 -288 324 -423 414 -135
      89 -356 199 -496 245 -337 110 -785 158 -1185 125z"/>
      <path d="M660 8005 c-90 -26 -179 -82 -265 -169 -151 -152 -202 -317 -160
      -516 35 -165 112 -306 232 -423 38 -36 543 -458 1123 -938 580 -480 1340
      -1108 1687 -1396 348 -288 636 -523 640 -523 5 0 68 60 142 134 95 95 131 138
      125 147 -4 8 -360 439 -789 959 -430 520 -1052 1274 -1384 1675 -332 402 -632
      761 -668 798 -109 115 -215 184 -358 234 -90 32 -244 40 -325 18z"/>
      <path d="M9945 8005 c-172 -33 -324 -114 -441 -237 -23 -24 -367 -437 -765
      -918 -1093 -1323 -2060 -2493 -2078 -2513 -14 -17 -5 -28 125 -157 l139 -138
      340 281 c1141 944 2295 1899 2650 2191 226 186 434 362 463 390 208 200 305
      489 233 699 -63 186 -247 351 -446 402 -70 18 -125 18 -220 0z"/>
      <path d="M5335 3459 c-127 -7 -181 -21 -272 -75 -108 -63 -215 -193 -257 -311
      -39 -111 -59 -371 -35 -470 37 -158 162 -311 319 -392 47 -24 115 -59 151 -77
      88 -46 199 -62 307 -47 150 22 257 88 372 231 137 169 166 264 157 516 -4 124
      -10 176 -26 226 -57 181 -224 338 -407 383 -77 20 -162 24 -309 16z"/>
    </g>
  </symbol>
</svg>
